<svg width="40" height="40" viewBox="0 0 40 40" fill="none" xmlns="http://www.w3.org/2000/svg">
<path d="M0 12.8C0 8.31958 0 6.07937 0.871948 4.36808C1.63893 2.86278 2.86278 1.63893 4.36808 0.871948C6.07937 0 8.31958 0 12.8 0H27.2C31.6804 0 33.9206 0 35.6319 0.871948C37.1372 1.63893 38.3611 2.86278 39.1281 4.36808C40 6.07937 40 8.31958 40 12.8V27.2C40 31.6804 40 33.9206 39.1281 35.6319C38.3611 37.1372 37.1372 38.3611 35.6319 39.1281C33.9206 40 31.6804 40 27.2 40H12.8C8.31958 40 6.07937 40 4.36808 39.1281C2.86278 38.3611 1.63893 37.1372 0.871948 35.6319C0 33.9206 0 31.6804 0 27.2V12.8Z" fill="#2F82EF"/>
<path d="M12.7998 0.5H27.2002C29.4486 0.5 31.1052 0.500481 32.4141 0.607422C33.7169 0.713899 34.6319 0.923349 35.4053 1.31738C36.8163 2.0364 37.9636 3.18371 38.6826 4.59473C39.0767 5.36806 39.2861 6.28305 39.3926 7.58594C39.4995 8.89483 39.5 10.5514 39.5 12.7998V27.2002C39.5 29.4486 39.4995 31.1052 39.3926 32.4141C39.2861 33.7169 39.0767 34.6319 38.6826 35.4053C37.9636 36.8163 36.8163 37.9636 35.4053 38.6826C34.6319 39.0767 33.7169 39.2861 32.4141 39.3926C31.1052 39.4995 29.4486 39.5 27.2002 39.5H12.7998C10.5514 39.5 8.89483 39.4995 7.58594 39.3926C6.28305 39.2861 5.36806 39.0767 4.59473 38.6826C3.18371 37.9636 2.0364 36.8163 1.31738 35.4053C0.923349 34.6319 0.713899 33.7169 0.607422 32.4141C0.500481 31.1052 0.5 29.4486 0.5 27.2002V12.7998C0.5 10.5514 0.500481 8.89483 0.607422 7.58594C0.713899 6.28305 0.923349 5.36806 1.31738 4.59473C2.0364 3.18371 3.18371 2.0364 4.59473 1.31738C5.36806 0.923349 6.28305 0.713899 7.58594 0.607422C8.89483 0.500481 10.5514 0.5 12.7998 0.5Z" stroke="white" stroke-opacity="0.1"/>
<path d="M18.9134 21.0848C18.7223 20.894 18.4945 20.7439 18.2438 20.6436L10.3138 17.4636C10.2191 17.4256 10.1383 17.3595 10.0823 17.2743C10.0262 17.1891 9.99755 17.0887 10.0002 16.9867C10.0028 16.8847 10.0365 16.786 10.0969 16.7037C10.1572 16.6215 10.2413 16.5597 10.3378 16.5266L29.3378 10.0266C29.4264 9.99456 29.5223 9.98846 29.6143 10.009C29.7062 10.0295 29.7904 10.0757 29.857 10.1423C29.9236 10.209 29.9699 10.2932 29.9904 10.3851C30.0109 10.4771 30.0048 10.573 29.9728 10.6616L23.4728 29.6616C23.4397 29.7581 23.3779 29.8421 23.2956 29.9025C23.2134 29.9628 23.1146 29.9966 23.0126 29.9992C22.9107 30.0018 22.8103 29.9732 22.7251 29.9171C22.6398 29.861 22.5738 29.7803 22.5358 29.6856L19.3558 21.7536C19.255 21.5031 19.1045 21.2756 18.9134 21.0848ZM18.9134 21.0848L29.8538 10.1466" stroke="white" stroke-width="2" stroke-linecap="round" stroke-linejoin="round"/>
</svg>
